# xmcd
#
# Track frame offsets:
#	150
#	17488
#	39544
#	57948
#	84450
#	111753
#	125882
#	145528
#	170833
#	199992
#
# Disc length: 2924 seconds
#
# Revision: 0
# Processed by: cddbd v1.5.2PL0 Copyright (c) Steve Scherf et al.
# Submitted via: EZCDAudioConverter 1.2.3.1
#
DISCID=8a0b6a0a
DTITLE=Elin Ruth - Here Comes The Storm
DYEAR=2014
DGENRE=Singer/Songwriter
TTITLE0=I Don't Need Your Religion
TTITLE1=The Storm
TTITLE2=Something In The Water
TTITLE3=I Only Miss You When You're On My Mind
TTITLE4=Volcano
TTITLE5=Over The Moon
TTITLE6=One Last Time
TTITLE7=You Were Right, NY
TTITLE8=Sad Melissa
TTITLE9=12 Min From BK
EXTD=
EXTT0=
EXTT1=
EXTT2=
EXTT3=
EXTT4=
EXTT5=
EXTT6=
EXTT7=
EXTT8=
EXTT9=
PLAYORDER=
